<?xml version="1.0" encoding="utf-8"?>
<!-- Generator: Adobe Illustrator 27.7.0, SVG Export Plug-In . SVG Version: 6.00 Build 0)  -->
<svg version="1.1" id="레이어_1" xmlns="http://www.w3.org/2000/svg" xmlns:xlink="http://www.w3.org/1999/xlink" x="0px"
	 y="0px" viewBox="0 0 48 48" style="enable-background:new 0 0 48 48;" xml:space="preserve">
<style type="text/css">
	.st0{fill:#DA0037;}
</style>
<path class="st0" d="M21,31.9l14.5-14.4l-2.2-2.2L21,27.6l-6-6l-2.1,2.2L21,31.9z M9,42c-1.6,0-3-1.4-3-3C6,39,6,9,6,9
	c0-1.6,1.4-3,3-3c0.5,0.2,33.3-0.7,32.1,0.9C42.7,5.2,41.8,38.8,42,39c0,1.6-1.4,3-3,3C39,42,9,42,9,42z M9,9v30V9z"/>
</svg>
