<?xml version="1.0" encoding="utf-8"?>
<!-- Generator: Adobe Illustrator 27.7.0, SVG Export Plug-In . SVG Version: 6.00 Build 0)  -->
<svg version="1.1" id="레이어_1" xmlns="http://www.w3.org/2000/svg" xmlns:xlink="http://www.w3.org/1999/xlink" x="0px"
	 y="0px" viewBox="0 0 48 48" style="enable-background:new 0 0 48 48;" xml:space="preserve">
<style type="text/css">
	.st0{fill:#FFFFFF;}
</style>
<path class="st0" d="M11,44c-0.8,0-1.5-0.3-2.1-0.9C8.3,42.5,8,41.8,8,41V19.3c0-0.8,0.3-1.5,0.9-2.1c0.6-0.6,1.3-0.9,2.1-0.9h3.5
	v-4.8c0-2.6,0.9-4.9,2.8-6.7C19.1,2.9,21.4,2,24,2s4.9,0.9,6.7,2.8c1.9,1.9,2.8,4.1,2.8,6.7v4.8H37c0.8,0,1.5,0.3,2.1,0.9
	c0.6,0.6,0.9,1.3,0.9,2.1V41c0,0.8-0.3,1.5-0.9,2.1C38.5,43.7,37.8,44,37,44H11z M24,34c1.1,0,2-0.4,2.7-1.1s1.1-1.6,1.1-2.6
	c0-1-0.4-1.9-1.1-2.7s-1.7-1.2-2.7-1.2s-2,0.4-2.7,1.2s-1.1,1.7-1.1,2.8s0.4,1.9,1.1,2.6C22,33.6,22.9,34,24,34z M17.5,16.3h13v-4.8
	c0-1.8-0.6-3.3-1.9-4.6C27.3,5.6,25.8,5,24,5c-1.8,0-3.3,0.6-4.6,1.9c-1.3,1.3-1.9,2.8-1.9,4.6V16.3z"/>
</svg>
